<svg xmlns="http://www.w3.org/2000/svg" width="209" height="31" viewBox="0 0 209 31">
  <path fill="#F6933A" fill-rule="evenodd" d="M13.498,11.458 C15.232,10.302 16.32,8.534 16.32,6.324 C16.32,2.21 13.396,0 9.282,0 L0.918,0 C0.34,0 0,0.34 0,0.918 L0,22.882 C0,23.46 0.34,23.8 0.918,23.8 L9.282,23.8 C13.736,23.8 16.898,21.386 16.898,16.932 C16.898,14.382 15.572,12.614 13.498,11.458 Z M8.636,4.284 C10.336,4.284 11.288,5.406 11.288,6.936 C11.288,8.432 10.064,9.588 8.738,9.622 L4.896,9.622 L4.896,4.25 L8.636,4.284 Z M8.636,19.482 L4.896,19.482 L4.896,13.736 L8.738,13.736 C10.608,13.736 11.696,14.994 11.696,16.592 C11.696,18.292 10.438,19.482 8.636,19.482 Z M31.1355,7.038 C30.4215,6.664 29.7075,6.46 28.6535,6.46 C26.6815,6.46 24.9815,7.276 23.6215,8.432 L21.1055,6.936 C20.5275,6.596 20.1875,6.46 19.9495,6.46 C19.5415,6.46 19.2355,6.732 19.2355,7.31 L19.2355,22.882 C19.2355,23.46 19.5755,23.8 20.1535,23.8 L23.6215,23.8 C24.2335,23.8 24.5395,23.494 24.5395,22.882 L24.5395,12.478 C25.3215,11.56 26.6135,11.288 27.0895,11.288 C27.6335,11.288 28.1095,11.356 28.4495,11.492 C28.9255,11.73 29.3335,11.73 29.6735,11.186 L31.4075,8.364 C31.5435,8.16 31.6115,7.99 31.6115,7.786 C31.6115,7.514 31.4415,7.242 31.1355,7.038 Z M48.943,15.3 C48.943,9.724 44.727,6.46 39.865,6.46 C35.037,6.46 30.821,9.758 30.821,15.3 C30.821,20.842 35.037,24.14 39.865,24.14 C44.761,24.14 48.943,20.876 48.943,15.3 Z M39.865,19.652 C37.791,19.652 36.125,18.19 36.125,15.3 C36.125,12.41 37.791,10.948 39.865,10.948 C41.939,10.948 43.605,12.41 43.605,15.3 C43.605,18.19 41.939,19.652 39.865,19.652 Z M68.7225,15.3 C68.7225,9.724 64.5065,6.46 59.6445,6.46 C54.8165,6.46 50.6005,9.758 50.6005,15.3 C50.6005,20.842 54.8165,24.14 59.6445,24.14 C64.5405,24.14 68.7225,20.876 68.7225,15.3 Z M59.6445,19.652 C57.5705,19.652 55.9045,18.19 55.9045,15.3 C55.9045,12.41 57.5705,10.948 59.6445,10.948 C61.7185,10.948 63.3845,12.41 63.3845,15.3 C63.3845,18.19 61.7185,19.652 59.6445,19.652 Z M86.428,22.61 L80.172,14.994 L85.782,8.024 C86.19,7.48 85.952,6.8 85.238,6.8 L81.532,6.8 C81.056,6.8 80.682,6.936 80.41,7.31 L76.364,12.716 L76.364,0.918 C76.364,0.34 75.99,0 75.412,0 L72.148,0 C71.57,0 71.23,0.34 71.23,0.918 L71.23,22.882 C71.23,23.46 71.57,23.8 72.148,23.8 L75.412,23.8 C75.99,23.8 76.364,23.46 76.364,22.882 L76.364,17.34 L80.92,23.29 C81.192,23.664 81.532,23.8 82.042,23.8 L85.782,23.8 C86.326,23.8 86.632,23.46 86.632,23.12 C86.632,22.916 86.53,22.746 86.428,22.61 Z M91.8255001,0 L88.3575001,0 C87.7795001,0 87.4395001,0.34 87.4395001,0.918 L87.4395001,19.108 C87.4395001,22.882 90.0915001,24.14 92.5735001,24.14 C94.2735001,24.14 95.7015001,23.664 96.7895001,23.086 C97.1295001,22.916 97.2995001,22.644 97.2995001,22.338 C97.2995001,22.168 97.2655001,21.998 97.1635001,21.794 L96.2115001,19.89 C96.0415001,19.55 95.7695001,19.38 95.4635001,19.38 C95.0895001,19.38 94.7495001,19.652 94.0695001,19.652 C93.3895001,19.652 92.7435001,19.278 92.7435001,18.088 L92.7435001,0.918 C92.7435001,0.34 92.4035001,0 91.8255001,0 Z M112.625,6.8 L108.953,6.8 C108.443,6.8 108.069,7.038 107.865,7.48 L104.431,15.232 L100.657,7.48 C100.453,7.038 100.113,6.8 99.6030001,6.8 L95.8630001,6.8 C95.2850001,6.8 95.0470001,7.106 95.0470001,7.446 C95.0470001,7.582 95.0810001,7.752 95.2510001,8.058 L101.745,20.57 L97.0530001,29.478 C96.9510001,29.648 96.9170001,29.852 96.9170001,29.988 C96.9170001,30.362 97.2230001,30.6 97.7330001,30.6 L101.541,30.6 C102.051,30.6 102.391,30.362 102.595,29.954 L113.305,7.99 C113.407,7.752 113.441,7.582 113.441,7.446 C113.441,7.106 113.203,6.8 112.625,6.8 Z M124.4825,6.46 C122.2045,6.46 120.3345,7.242 118.9065,8.432 L116.4245,6.936 C115.8465,6.596 115.5065,6.46 115.2685,6.46 C114.8605,6.46 114.5545,6.732 114.5545,7.31 L114.5545,22.882 C114.5545,23.46 114.8945,23.8 115.4725,23.8 L118.9405,23.8 C119.5525,23.8 119.8585,23.494 119.8585,22.882 L119.8585,12.682 C120.7085,11.696 122.2045,11.084 123.3605,11.084 C125.0945,11.084 125.9445,12.206 125.9445,13.736 L125.9445,22.882 C125.9445,23.46 126.2845,23.8 126.8625,23.8 L130.2965,23.8 C130.9085,23.8 131.2485,23.46 131.2485,22.882 L131.2485,12.886 C131.2485,9.418 128.8005,6.46 124.4825,6.46 Z M155.3715,11.458 C157.1055,10.302 158.1935,8.534 158.1935,6.324 C158.1935,2.21 155.2695,0 151.1555,0 L142.7915,0 C142.2135,0 141.8735,0.34 141.8735,0.918 L141.8735,22.882 C141.8735,23.46 142.2135,23.8 142.7915,23.8 L151.1555,23.8 C155.6095,23.8 158.7715,21.386 158.7715,16.932 C158.7715,14.382 157.4455,12.614 155.3715,11.458 Z M150.5095,4.284 C152.2095,4.284 153.1615,5.406 153.1615,6.936 C153.1615,8.432 151.9375,9.588 150.6115,9.622 L146.7695,9.622 L146.7695,4.25 L150.5095,4.284 Z M150.5095,19.482 L146.7695,19.482 L146.7695,13.736 L150.6115,13.736 C152.4815,13.736 153.5695,14.994 153.5695,16.592 C153.5695,18.292 152.3115,19.482 150.5095,19.482 Z M173.927,7.888 C172.499,7.004 170.425,6.46 167.603,6.46 C165.801,6.46 163.489,6.902 162.435,7.14 C162.027,7.242 161.823,7.48 161.789,7.82 C161.789,7.956 161.789,8.092 161.891,8.466 L162.367,10.132 C162.469,10.608 162.741,10.88 163.183,10.88 C163.251,10.88 163.387,10.812 163.863,10.71 C164.339,10.608 165.801,10.234 167.569,10.234 C169.337,10.234 170.255,10.642 170.765,11.05 C171.207,11.39 171.479,11.764 171.547,12.138 L166.583,12.954 C162.197,13.668 160.667,16.116 160.667,18.598 C160.667,21.352 162.673,24.14 167.093,24.14 C169.541,24.14 171.411,23.392 172.703,22.44 L175.049,23.766 C175.627,24.106 175.831,24.14 176.069,24.14 C176.375,24.14 176.613,23.868 176.613,23.29 L176.613,13.362 C176.613,11.186 175.763,9.044 173.927,7.888 Z M165.563,18.394 C165.563,17.68 165.801,16.626 168.147,16.082 L171.581,15.3 L171.581,18.938 C170.323,19.822 169.269,20.264 168.113,20.298 C166.617,20.332 165.563,19.618 165.563,18.394 Z M191.7345,7.038 C191.0205,6.664 190.3065,6.46 189.2525,6.46 C187.2805,6.46 185.5805,7.276 184.2205,8.432 L181.7045,6.936 C181.1265,6.596 180.7865,6.46 180.5485,6.46 C180.1405,6.46 179.8345,6.732 179.8345,7.31 L179.8345,22.882 C179.8345,23.46 180.1745,23.8 180.7525,23.8 L184.2205,23.8 C184.8325,23.8 185.1385,23.494 185.1385,22.882 L185.1385,12.478 C185.9205,11.56 187.2125,11.288 187.6885,11.288 C188.2325,11.288 188.7085,11.356 189.0485,11.492 C189.5245,11.73 189.9325,11.73 190.2725,11.186 L192.0065,8.364 C192.1425,8.16 192.2105,7.99 192.2105,7.786 C192.2105,7.514 192.0405,7.242 191.7345,7.038 Z M208.42,22.61 L202.164,14.994 L207.774,8.024 C208.182,7.48 207.944,6.8 207.23,6.8 L203.524,6.8 C203.048,6.8 202.674,6.936 202.402,7.31 L198.356,12.716 L198.356,0.918 C198.356,0.34 197.982,0 197.404,0 L194.14,0 C193.562,0 193.222,0.34 193.222,0.918 L193.222,22.882 C193.222,23.46 193.562,23.8 194.14,23.8 L197.404,23.8 C197.982,23.8 198.356,23.46 198.356,22.882 L198.356,17.34 L202.912,23.29 C203.184,23.664 203.524,23.8 204.034,23.8 L207.774,23.8 C208.318,23.8 208.624,23.46 208.624,23.12 C208.624,22.916 208.522,22.746 208.42,22.61 Z"/>
</svg>
