<svg xmlns="http://www.w3.org/2000/svg" width="273" height="36" viewBox="0 0 273 36">
  <g fill="none" fill-rule="evenodd">
    <g transform="rotate(180 21 18)">
      <polygon fill="#F4C396" points="14.973 -2.973 38.973 39.027 14.973 39.027 3.027 18.027" transform="matrix(0 1 1 0 2.973 -2.973)"/>
      <polygon fill="#F4C396" points="14.973 -2.973 38.973 39.027 14.973 39.027 3.027 18.027" transform="rotate(90 21 18.027)"/>
      <path fill="#F4AB67" d="M21,24 L2.47958509e-13,12 L10.5,6.02727273 L21,0.0545454545 L42,12 L21,24 Z"/>
    </g>
    <path fill="#F6933A" d="M77.4980002,15.1580001 C79.2320002,14.0020001 80.3200002,12.2340001 80.3200002,10.0240001 C80.3200002,5.91000003 77.3960002,3.7 73.2820001,3.7 L64.918,3.7 C64.34,3.7 64,4.04 64,4.61800001 L64,26.5820003 C64,27.1600003 64.34,27.5000003 64.918,27.5000003 L73.2820001,27.5000003 C77.7360002,27.5000003 80.8980002,25.0860003 80.8980002,20.6320002 C80.8980002,18.0820002 79.5720002,16.3140002 77.4980002,15.1580001 Z M72.6360001,7.98400005 C74.3360001,7.98400005 75.2880001,9.10600007 75.2880001,10.6360001 C75.2880001,12.1320001 74.0640001,13.2880001 72.7380001,13.3220001 L68.8960001,13.3220001 L68.8960001,7.95000005 L72.6360001,7.98400005 Z M72.6360001,23.1820002 L68.8960001,23.1820002 L68.8960001,17.4360002 L72.7380001,17.4360002 C74.6080001,17.4360002 75.6960001,18.6940002 75.6960001,20.2920002 C75.6960001,21.9920002 74.4380001,23.1820002 72.6360001,23.1820002 Z M95.1355004,10.7380001 C94.4215004,10.3640001 93.7075004,10.1600001 92.6535004,10.1600001 C90.6815003,10.1600001 88.9815003,10.9760001 87.6215003,12.1320001 L85.1055003,10.6360001 C84.5275003,10.2960001 84.1875003,10.1600001 83.9495003,10.1600001 C83.5415003,10.1600001 83.2355003,10.4320001 83.2355003,11.0100001 L83.2355003,26.5820003 C83.2355003,27.1600003 83.5755003,27.5000003 84.1535003,27.5000003 L87.6215003,27.5000003 C88.2335003,27.5000003 88.5395003,27.1940003 88.5395003,26.5820003 L88.5395003,16.1780002 C89.3215003,15.2600001 90.6135003,14.9880001 91.0895003,14.9880001 C91.6335004,14.9880001 92.1095004,15.0560001 92.4495004,15.1920001 C92.9255004,15.4300001 93.3335004,15.4300001 93.6735004,14.8860001 L95.4075004,12.0640001 C95.5435004,11.8600001 95.6115004,11.6900001 95.6115004,11.4860001 C95.6115004,11.2140001 95.4415004,10.9420001 95.1355004,10.7380001 Z M112.943001,19.0000002 C112.943001,13.4240001 108.727001,10.1600001 103.865001,10.1600001 C99.0370005,10.1600001 94.8210004,13.4580001 94.8210004,19.0000002 C94.8210004,24.5420003 99.0370005,27.8400003 103.865001,27.8400003 C108.761001,27.8400003 112.943001,24.5760003 112.943001,19.0000002 Z M103.865001,23.3520002 C101.791,23.3520002 100.125,21.8900002 100.125,19.0000002 C100.125,16.1100002 101.791,14.6480001 103.865001,14.6480001 C105.939001,14.6480001 107.605001,16.1100002 107.605001,19.0000002 C107.605001,21.8900002 105.939001,23.3520002 103.865001,23.3520002 Z M132.722501,19.0000002 C132.722501,13.4240001 128.506501,10.1600001 123.644501,10.1600001 C118.816501,10.1600001 114.600501,13.4580001 114.600501,19.0000002 C114.600501,24.5420003 118.816501,27.8400003 123.644501,27.8400003 C128.540501,27.8400003 132.722501,24.5760003 132.722501,19.0000002 Z M123.644501,23.3520002 C121.570501,23.3520002 119.904501,21.8900002 119.904501,19.0000002 C119.904501,16.1100002 121.570501,14.6480001 123.644501,14.6480001 C125.718501,14.6480001 127.384501,16.1100002 127.384501,19.0000002 C127.384501,21.8900002 125.718501,23.3520002 123.644501,23.3520002 Z M150.428001,26.3100003 L144.172001,18.6940002 L149.782001,11.7240001 C150.190001,11.1800001 149.952001,10.5000001 149.238001,10.5000001 L145.532001,10.5000001 C145.056001,10.5000001 144.682001,10.6360001 144.410001,11.0100001 L140.364001,16.4160002 L140.364001,4.61800001 C140.364001,4.04 139.990001,3.7 139.412001,3.7 L136.148001,3.7 C135.570001,3.7 135.230001,4.04 135.230001,4.61800001 L135.230001,26.5820003 C135.230001,27.1600003 135.570001,27.5000003 136.148001,27.5000003 L139.412001,27.5000003 C139.990001,27.5000003 140.364001,27.1600003 140.364001,26.5820003 L140.364001,21.0400002 L144.920001,26.9900003 C145.192001,27.3640003 145.532001,27.5000003 146.042001,27.5000003 L149.782001,27.5000003 C150.326001,27.5000003 150.632001,27.1600003 150.632001,26.8200003 C150.632001,26.6160003 150.530001,26.4460003 150.428001,26.3100003 Z M155.825501,3.7 L152.357501,3.7 C151.779501,3.7 151.439501,4.04 151.439501,4.61800001 L151.439501,22.8080002 C151.439501,26.5820003 154.091501,27.8400003 156.573501,27.8400003 C158.273501,27.8400003 159.701501,27.3640003 160.789501,26.7860003 C161.129501,26.6160003 161.299501,26.3440003 161.299501,26.0380003 C161.299501,25.8680003 161.265501,25.6980003 161.163501,25.4940003 L160.211501,23.5900002 C160.041501,23.2500002 159.769501,23.0800002 159.463501,23.0800002 C159.089501,23.0800002 158.749501,23.3520002 158.069501,23.3520002 C157.389501,23.3520002 156.743501,22.9780002 156.743501,21.7880002 L156.743501,4.61800001 C156.743501,4.04 156.403501,3.7 155.825501,3.7 Z M176.625001,10.5000001 L172.953001,10.5000001 C172.443001,10.5000001 172.069001,10.7380001 171.865001,11.1800001 L168.431001,18.9320002 L164.657001,11.1800001 C164.453001,10.7380001 164.113001,10.5000001 163.603001,10.5000001 L159.863001,10.5000001 C159.285001,10.5000001 159.047001,10.8060001 159.047001,11.1460001 C159.047001,11.2820001 159.081001,11.4520001 159.251001,11.7580001 L165.745001,24.2700003 L161.053001,33.1780004 C160.951001,33.3480004 160.917001,33.5520004 160.917001,33.6880004 C160.917001,34.0620004 161.223001,34.3000004 161.733001,34.3000004 L165.541001,34.3000004 C166.051001,34.3000004 166.391001,34.0620004 166.595001,33.6540004 L177.305001,11.6900001 C177.407001,11.4520001 177.441001,11.2820001 177.441001,11.1460001 C177.441001,10.8060001 177.203001,10.5000001 176.625001,10.5000001 Z M188.482502,10.1600001 C186.204502,10.1600001 184.334502,10.9420001 182.906502,12.1320001 L180.424502,10.6360001 C179.846502,10.2960001 179.506502,10.1600001 179.268502,10.1600001 C178.860502,10.1600001 178.554502,10.4320001 178.554502,11.0100001 L178.554502,26.5820003 C178.554502,27.1600003 178.894502,27.5000003 179.472502,27.5000003 L182.940502,27.5000003 C183.552502,27.5000003 183.858502,27.1940003 183.858502,26.5820003 L183.858502,16.3820002 C184.708502,15.3960001 186.204502,14.7840001 187.360502,14.7840001 C189.094502,14.7840001 189.944502,15.9060002 189.944502,17.4360002 L189.944502,26.5820003 C189.944502,27.1600003 190.284502,27.5000003 190.862502,27.5000003 L194.296502,27.5000003 C194.908502,27.5000003 195.248502,27.1600003 195.248502,26.5820003 L195.248502,16.5860002 C195.248502,13.1180001 192.800502,10.1600001 188.482502,10.1600001 Z M219.371502,15.1580001 C221.105502,14.0020001 222.193502,12.2340001 222.193502,10.0240001 C222.193502,5.91000003 219.269502,3.7 215.155502,3.7 L206.791502,3.7 C206.213502,3.7 205.873502,4.04 205.873502,4.61800001 L205.873502,26.5820003 C205.873502,27.1600003 206.213502,27.5000003 206.791502,27.5000003 L215.155502,27.5000003 C219.609502,27.5000003 222.771502,25.0860003 222.771502,20.6320002 C222.771502,18.0820002 221.445502,16.3140002 219.371502,15.1580001 Z M214.509502,7.98400005 C216.209502,7.98400005 217.161502,9.10600007 217.161502,10.6360001 C217.161502,12.1320001 215.937502,13.2880001 214.611502,13.3220001 L210.769502,13.3220001 L210.769502,7.95000005 L214.509502,7.98400005 Z M214.509502,23.1820002 L210.769502,23.1820002 L210.769502,17.4360002 L214.611502,17.4360002 C216.481502,17.4360002 217.569502,18.6940002 217.569502,20.2920002 C217.569502,21.9920002 216.311502,23.1820002 214.509502,23.1820002 Z M237.927002,11.5880001 C236.499002,10.7040001 234.425002,10.1600001 231.603002,10.1600001 C229.801002,10.1600001 227.489002,10.6020001 226.435002,10.8400001 C226.027002,10.9420001 225.823002,11.1800001 225.789002,11.5200001 C225.789002,11.6560001 225.789002,11.7920001 225.891002,12.1660001 L226.367002,13.8320001 C226.469002,14.3080001 226.741002,14.5800001 227.183002,14.5800001 C227.251002,14.5800001 227.387002,14.5120001 227.863002,14.4100001 C228.339002,14.3080001 229.801002,13.9340001 231.569002,13.9340001 C233.337002,13.9340001 234.255002,14.3420001 234.765002,14.7500001 C235.207002,15.0900001 235.479002,15.4640001 235.547002,15.8380002 L230.583002,16.6540002 C226.197002,17.3680002 224.667002,19.8160002 224.667002,22.2980002 C224.667002,25.0520003 226.673002,27.8400003 231.093002,27.8400003 C233.541002,27.8400003 235.411002,27.0920003 236.703002,26.1400003 L239.049002,27.4660003 C239.627002,27.8060003 239.831002,27.8400003 240.069002,27.8400003 C240.375002,27.8400003 240.613002,27.5680003 240.613002,26.9900003 L240.613002,17.0620002 C240.613002,14.8860001 239.763002,12.7440001 237.927002,11.5880001 Z M229.563002,22.0940002 C229.563002,21.3800002 229.801002,20.3260002 232.147002,19.7820002 L235.581002,19.0000002 L235.581002,22.6380002 C234.323002,23.5220002 233.269002,23.9640003 232.113002,23.9980003 C230.617002,24.0320003 229.563002,23.3180002 229.563002,22.0940002 Z M255.734503,10.7380001 C255.020503,10.3640001 254.306502,10.1600001 253.252502,10.1600001 C251.280502,10.1600001 249.580502,10.9760001 248.220502,12.1320001 L245.704502,10.6360001 C245.126502,10.2960001 244.786502,10.1600001 244.548502,10.1600001 C244.140502,10.1600001 243.834502,10.4320001 243.834502,11.0100001 L243.834502,26.5820003 C243.834502,27.1600003 244.174502,27.5000003 244.752502,27.5000003 L248.220502,27.5000003 C248.832502,27.5000003 249.138502,27.1940003 249.138502,26.5820003 L249.138502,16.1780002 C249.920502,15.2600001 251.212502,14.9880001 251.688502,14.9880001 C252.232502,14.9880001 252.708502,15.0560001 253.048502,15.1920001 C253.524502,15.4300001 253.932502,15.4300001 254.272502,14.8860001 L256.006503,12.0640001 C256.142503,11.8600001 256.210503,11.6900001 256.210503,11.4860001 C256.210503,11.2140001 256.040503,10.9420001 255.734503,10.7380001 Z M272.420003,26.3100003 L266.164003,18.6940002 L271.774003,11.7240001 C272.182003,11.1800001 271.944003,10.5000001 271.230003,10.5000001 L267.524003,10.5000001 C267.048003,10.5000001 266.674003,10.6360001 266.402003,11.0100001 L262.356003,16.4160002 L262.356003,4.61800001 C262.356003,4.04 261.982003,3.7 261.404003,3.7 L258.140003,3.7 C257.562003,3.7 257.222003,4.04 257.222003,4.61800001 L257.222003,26.5820003 C257.222003,27.1600003 257.562003,27.5000003 258.140003,27.5000003 L261.404003,27.5000003 C261.982003,27.5000003 262.356003,27.1600003 262.356003,26.5820003 L262.356003,21.0400002 L266.912003,26.9900003 C267.184003,27.3640003 267.524003,27.5000003 268.034003,27.5000003 L271.774003,27.5000003 C272.318003,27.5000003 272.624003,27.1600003 272.624003,26.8200003 C272.624003,26.6160003 272.522003,26.4460003 272.420003,26.3100003 Z"/>
  </g>
</svg>
