<svg xmlns="http://www.w3.org/2000/svg" width="16" height="16" viewBox="0 0 16 16">
  <g fill="none" fill-rule="evenodd">
    <rect width="16" height="16"/>
    <path fill="#F77F16" d="M8.00450253,1.44122519 C10.1432056,1.44122519 10.3963479,1.45072668 11.237321,1.48823254 C12.0192608,1.52273793 12.4409981,1.6537584 12.7226565,1.76327551 C13.0948659,1.90729802 13.363517,2.08232536 13.6416734,2.36036881 C13.9233319,2.6419128 14.0949284,2.90745429 14.2420111,3.27951242 C14.3515728,3.56105642 14.4826465,3.98562275 14.5171659,4.76424441 C14.554687,5.60837631 14.5641924,5.86141585 14.5641924,7.99624941 C14.5641924,10.131083 14.554687,10.387123 14.5171659,11.2282544 C14.4826465,12.0098765 14.3515728,12.4314424 14.2420111,12.7129864 C14.0979301,13.0850445 13.9233319,13.3535865 13.6446751,13.6316299 C13.3630167,13.9131739 13.0973673,14.0847007 12.7256582,14.2317237 C12.4439997,14.3412408 12.0187606,14.4722613 11.2403227,14.5067667 C10.3958477,14.5442725 10.1427053,14.553774 8.00700394,14.553774 C5.87130261,14.553774 5.61515853,14.5442725 4.7736852,14.5067667 C3.99174536,14.4722613 3.57000813,14.3412408 3.2883497,14.2317237 C2.91614033,14.0877012 2.64748921,13.9131739 2.36883247,13.6346304 C2.08717404,13.3530864 1.91557751,13.0875449 1.76849478,12.7159869 C1.65893315,12.4344429 1.52785942,12.0093765 1.49334,11.2312549 C1.4558189,10.387123 1.44631355,10.1340835 1.44631355,7.99924988 C1.44631355,5.86441632 1.4558189,5.60837631 1.49334,4.76724488 C1.52785942,3.98562275 1.65893315,3.56405688 1.76849478,3.28251289 C1.91257582,2.91045476 2.08767432,2.6419128 2.36583078,2.36336928 C2.64748921,2.08182529 2.91313864,1.91029848 3.28534801,1.76327551 C3.56700644,1.6537584 3.99174536,1.52273793 4.77068351,1.48823254 C5.61165656,1.45072668 5.86529923,1.44122519 8.00400225,1.44122519 L8.00450253,1.44122519 Z M8.00450253,0.000500078137 C5.8312801,0.000500078137 5.55962729,0.0100015627 4.70564693,0.047507423 C3.85516853,0.0850132833 3.27033957,0.222534771 2.76405478,0.419565557 C2.23575761,0.62559775 1.78850603,0.897640256 1.34475643,1.34471011 C0.897504846,1.7887795 0.62535176,2.23534927 0.41923582,2.76043132 C0.222124945,3.27001094 0.084547558,3.85110173 0.0470264524,4.70123457 C0.00950534676,5.55786842 0,5.82941085 0,8.00175027 C0,10.1740897 0.00950534676,10.4456321 0.0470264524,11.2992655 C0.084547558,12.1493983 0.222124945,12.7339897 0.41923582,13.2400688 C0.625852042,13.7681513 0.897504846,14.2152211 1.34475643,14.6587904 C1.78850603,15.1023597 2.23575761,15.3779028 2.76105309,15.5809345 C3.27083985,15.7779653 3.85216684,15.9154868 4.70264524,15.9529927 C5.55612532,15.9904985 5.82827841,16 8.00150084,16 C10.1747233,16 10.4468764,15.9904985 11.3003565,15.9529927 C12.1508348,15.9154868 12.7356638,15.7779653 13.2419486,15.5809345 C13.7672441,15.3779028 14.2144957,15.1028598 14.6582453,14.6587904 C15.1019949,14.2147211 15.3776499,13.7681513 15.5807642,13.2430692 C15.7778751,12.7334896 15.9154524,12.1523988 15.9529735,11.302266 C15.9904947,10.4491327 16,10.1770902 16,8.00475074 C16,5.83241131 15.9904947,5.56086889 15.9529735,4.70723551 C15.9154524,3.85710267 15.7778751,3.27251133 15.5807642,2.76643226 C15.3836533,2.2348492 15.1115002,1.78827942 14.6647489,1.34421003 C14.2209993,0.900640725 13.7737477,0.625097672 13.2484523,0.422065948 C12.7386655,0.225035162 12.1573385,0.087513674 11.3068601,0.0500078137 C10.4503783,0.00950148461 10.1782253,0 8.00500281,0 L8.00500281,0 L8.00450253,0.000500078137 Z M8.00450253,3.89160806 C5.73472578,3.89160806 3.89268964,5.73239569 3.89268964,8.00175027 C3.89268964,10.2711049 5.7342255,12.1118925 8.00450253,12.1118925 C10.2747796,12.1118925 12.1163154,10.2711049 12.1163154,8.00175027 C12.1163154,5.73289576 10.2747796,3.89160806 8.00450253,3.89160806 L8.00450253,3.89160806 Z M8.00450253,10.6676668 C6.53167407,10.6676668 5.33750235,9.47398031 5.33750235,8.00175027 C5.33750235,6.52952024 6.53167407,5.33583372 8.00450253,5.33583372 C9.477331,5.33583372 10.6715027,6.52952024 10.6715027,8.00175027 C10.6715027,9.47398031 9.477331,10.6676668 8.00450253,10.6676668 L8.00450253,10.6676668 Z M13.2384466,3.72908267 C13.2384466,4.25916549 12.8087049,4.68873261 12.2784066,4.68873261 C11.7481083,4.68873261 11.3183666,4.25916549 11.3183666,3.72908267 C11.3183666,3.19899984 11.7481083,2.76943272 12.2784066,2.76943272 C12.8087049,2.76943272 13.2384466,3.19899984 13.2384466,3.72908267 L13.2384466,3.72908267 Z"/>
  </g>
</svg>
