<svg xmlns="http://www.w3.org/2000/svg" width="16" height="14" viewBox="0 0 16 14">
  <g fill="none" fill-rule="evenodd" transform="translate(0 -1)">
    <rect width="16" height="16"/>
    <path fill="#F77F16" d="M16,3.03744087 C15.4126101,3.29993077 14.7782291,3.47492404 14.1158533,3.55292104 C14.7937262,3.14643668 15.3126289,2.50296142 15.5590827,1.73749087 C14.9247016,2.11247644 14.2218334,2.38746587 13.4749734,2.53446021 C12.8750859,1.89698473 12.0222458,1.5 11.0784228,1.5 C9.26626258,1.5 7.79753796,2.9689435 7.79753796,4.78137379 C7.79753796,5.03736395 7.82553271,5.28735433 7.88202212,5.52834506 C5.15453352,5.39085035 2.735987,4.0844006 1.11779041,2.09747702 C0.836343186,2.58195839 0.674373555,3.14743664 0.674373555,3.74741356 C0.674373555,4.88486981 1.2522652,5.89083112 2.13359995,6.47880851 C1.59620071,6.4633091 1.09029557,6.31331487 0.646378804,6.06932426 L0.646378804,6.1098227 C0.646378804,7.70026153 1.77766669,9.02871043 3.28038493,9.32819892 C3.00543648,9.40319603 2.71499094,9.44369447 2.41504718,9.44369447 C2.20258701,9.44369447 1.99962507,9.42169532 1.79666313,9.38419676 C2.21558458,10.6871466 3.42785728,11.6371101 4.86158845,11.665609 C3.73679935,12.5465751 2.32456414,13.0720549 0.784352934,13.0720549 C0.518902706,13.0720549 0.259451353,13.0565555 0,13.0250567 C1.45622696,13.9595208 3.18040367,14.5 5.03355621,14.5 C11.0699244,14.5 14.3723052,9.49719242 14.3723052,5.15985924 C14.3723052,5.01636476 14.3693058,4.87537018 14.362807,4.73487558 C15.0031869,4.27539325 15.5595826,3.69741548 16,3.03794085 L16,3.03744087 Z"/>
  </g>
</svg>
